<svg width="384" height="377" viewBox="0 0 384 377" fill="none" xmlns="http://www.w3.org/2000/svg">
<path d="M284.313 19.4213C284.313 19.4213 226.026 -15.2892 160.831 8.09714C95.6365 31.4835 55.46 95.9125 21.5128 147.153C-12.4345 198.393 -5.41647 258.908 36.9948 294.386C79.4062 329.864 115.993 297.532 180.793 308.653C245.593 319.773 261.631 332.699 320.344 306.215C379.056 279.73 400.949 193.654 367.73 119.998C334.511 46.3428 284.313 19.4213 284.313 19.4213Z" fill="#322153"/>
<path opacity="0.7" d="M284.313 19.4213C284.313 19.4213 226.026 -15.2892 160.831 8.09714C95.6365 31.4835 55.46 95.9125 21.5128 147.153C-12.4345 198.393 -5.41647 258.908 36.9948 294.386C79.4062 329.864 115.993 297.532 180.793 308.653C245.593 319.773 261.631 332.699 320.344 306.215C379.056 279.73 400.949 193.654 367.73 119.998C334.511 46.3428 284.313 19.4213 284.313 19.4213Z" fill="white"/>
<path d="M249.112 65.0674C248.101 59.8715 245.927 51.898 241.922 49.1981C235.855 45.09 229.686 53.8987 222.345 55.0253C215.003 56.1519 226.622 33.29 213.779 29.1721C200.937 25.0542 197.256 40.3408 192.968 47.3917C188.68 54.4426 182.573 44.4781 177.061 46.2166C171.55 47.955 174.614 57.3756 169.113 58.5507C163.612 59.7259 154.43 52.675 150.142 56.7929C146.097 60.6776 145.865 61.4352 140.03 65.0189L249.112 65.0674Z" fill="#322153"/>
<path d="M81.6512 203.511C80.9837 200.112 79.568 194.887 76.9388 193.119C72.8938 190.429 68.9298 196.198 64.1163 197.004C59.3028 197.81 66.9174 182.757 58.5039 180.067C50.0904 177.376 47.6837 187.38 44.8825 191.993C42.0814 196.606 38.0668 190.05 34.4567 191.226C30.8466 192.401 32.8589 198.539 29.2488 199.306C25.6387 200.073 19.6319 195.421 16.8207 198.16C14.1611 200.714 14.0196 201.19 10.2375 203.54L81.6512 203.511Z" fill="#322153"/>
<path d="M375.507 172.986C373.484 162.517 369.065 146.415 360.995 140.937C348.648 132.643 336.311 150.416 321.557 152.786C306.803 155.155 330.193 108.946 304.285 100.652C278.377 92.3579 270.965 123.164 262.329 137.383C253.693 151.601 241.326 131.507 230.202 135.061C219.078 138.616 225.267 157.583 214.164 159.953C203.06 162.323 184.534 148.095 175.898 156.36C167.697 164.236 167.262 165.712 155.613 172.948L375.507 172.986Z" fill="#322153"/>
<path opacity="0.4" d="M249.112 65.0674C248.101 59.8715 245.927 51.898 241.922 49.1981C235.855 45.09 229.686 53.8987 222.345 55.0253C215.003 56.1519 226.622 33.29 213.779 29.1721C200.937 25.0542 197.256 40.3408 192.968 47.3917C188.68 54.4426 182.573 44.4781 177.061 46.2166C171.55 47.955 174.614 57.3756 169.113 58.5507C163.612 59.7259 154.43 52.675 150.142 56.7929C146.097 60.6776 145.865 61.4352 140.03 65.0189L249.112 65.0674Z" fill="white"/>
<path opacity="0.4" d="M81.6512 203.511C80.9837 200.112 79.568 194.887 76.9388 193.119C72.8938 190.429 68.9298 196.198 64.1163 197.004C59.3028 197.81 66.9174 182.757 58.5039 180.067C50.0904 177.376 47.6837 187.38 44.8825 191.993C42.0814 196.606 38.0668 190.05 34.4567 191.226C30.8466 192.401 32.8589 198.539 29.2488 199.306C25.6387 200.073 19.6319 195.421 16.8207 198.16C14.1611 200.714 14.0196 201.19 10.2375 203.54L81.6512 203.511Z" fill="white"/>
<path opacity="0.4" d="M375.507 172.986C373.484 162.517 369.065 146.415 360.995 140.937C348.648 132.643 336.311 150.416 321.557 152.786C306.803 155.155 330.193 108.946 304.285 100.652C278.377 92.3579 270.965 123.164 262.329 137.383C253.693 151.601 241.326 131.507 230.202 135.061C219.078 138.616 225.267 157.583 214.164 159.953C203.06 162.323 184.534 148.095 175.898 156.36C167.697 164.236 167.262 165.712 155.613 172.948L375.507 172.986Z" fill="white"/>
<path d="M308.563 321.026C308.563 321.026 322.316 322.337 329.293 330.524C331.797 327.608 334.944 325.262 338.506 323.655C342.068 322.047 345.957 321.219 349.892 321.23C353.124 317.483 355.18 312.933 355.823 308.107C356.466 303.282 355.669 298.381 353.524 293.974C351.379 289.567 347.974 285.836 343.707 283.215C339.44 280.594 334.485 279.192 329.42 279.17C324.355 279.149 319.388 280.51 315.097 283.094C310.805 285.679 307.367 289.381 305.182 293.769C302.996 298.158 302.154 303.052 302.753 307.883C303.351 312.714 305.366 317.281 308.563 321.055V321.026Z" fill="#322153"/>
<path opacity="0.3" d="M308.563 321.026C308.563 321.026 322.316 322.337 329.293 330.524C331.797 327.608 334.944 325.262 338.506 323.655C342.068 322.047 345.957 321.219 349.892 321.23C353.124 317.483 355.18 312.933 355.823 308.107C356.466 303.282 355.669 298.381 353.524 293.974C351.379 289.567 347.974 285.836 343.707 283.215C339.44 280.594 334.485 279.192 329.42 279.17C324.355 279.149 319.388 280.51 315.097 283.094C310.805 285.679 307.367 289.381 305.182 293.769C302.996 298.158 302.154 303.052 302.753 307.883C303.351 312.714 305.366 317.281 308.563 321.055V321.026Z" fill="white"/>
<path d="M328.838 280.974L328.373 347.209H330.699L328.838 280.974Z" fill="#263238"/>
<path d="M329.536 328.028C329.536 328.028 334.177 320.006 342.54 317.549C342.54 317.549 333.712 319.559 329.303 326.464L329.536 328.028Z" fill="#263238"/>
<path d="M329.536 305.283C329.536 305.283 334.177 297.261 342.54 294.803C342.54 294.803 333.712 296.814 329.303 303.719L329.536 305.283Z" fill="#263238"/>
<path d="M329.536 316.655C329.536 316.655 334.177 308.633 342.54 306.176C342.54 306.176 333.712 308.186 329.303 315.092L329.536 316.655Z" fill="#263238"/>
<path d="M328.848 311.081C328.848 311.081 324.369 303.058 316.299 300.601C316.299 300.601 324.813 302.612 329.071 309.517L328.848 311.081Z" fill="#263238"/>
<path d="M328.848 322.23C328.848 322.23 324.369 314.208 316.299 311.751C316.299 311.751 324.813 313.761 329.071 320.666L328.848 322.23Z" fill="#263238"/>
<path d="M257.445 305.846C257.445 305.846 275.859 307.604 285.203 318.568C285.203 318.568 295.063 305.865 312.78 306.118C317.109 301.102 319.865 295.007 320.728 288.545C321.591 282.083 320.524 275.518 317.653 269.615C314.781 263.712 310.223 258.714 304.509 255.203C298.794 251.692 292.158 249.812 285.375 249.782C278.591 249.752 271.938 251.574 266.19 255.035C260.442 258.496 255.836 263.453 252.909 269.331C249.981 275.208 248.852 281.763 249.654 288.233C250.455 294.703 253.153 300.821 257.435 305.875L257.445 305.846Z" fill="#322153"/>
<path opacity="0.5" d="M257.445 305.846C257.445 305.846 275.859 307.604 285.203 318.568C285.203 318.568 295.063 305.865 312.78 306.118C317.109 301.102 319.865 295.007 320.728 288.545C321.591 282.083 320.524 275.518 317.653 269.615C314.781 263.712 310.223 258.714 304.509 255.203C298.794 251.692 292.158 249.812 285.375 249.782C278.591 249.752 271.938 251.574 266.19 255.035C260.442 258.496 255.836 263.453 252.909 269.331C249.981 275.208 248.852 281.763 249.654 288.233C250.455 294.703 253.153 300.821 257.435 305.875L257.445 305.846Z" fill="white"/>
<path d="M284.587 252.217L283.97 340.906H287.074L284.587 252.217Z" fill="#263238"/>
<path d="M285.527 315.228C285.527 315.228 291.746 304.476 302.94 301.194C302.94 301.194 291.119 303.874 285.213 313.13L285.527 315.228Z" fill="#263238"/>
<path d="M285.527 284.761C285.527 284.761 291.746 274.01 302.94 270.728C302.94 270.728 291.119 273.418 285.213 282.673L285.527 284.761Z" fill="#263238"/>
<path d="M285.527 299.999C285.527 299.999 291.746 289.248 302.94 285.956C302.94 285.956 291.119 288.646 285.213 297.901L285.527 299.999Z" fill="#263238"/>
<path d="M284.607 292.531C284.607 292.531 278.6 281.78 267.8 278.497C267.8 278.497 279.196 281.178 284.9 290.443L284.607 292.531Z" fill="#263238"/>
<path d="M284.607 307.458C284.607 307.458 278.6 296.707 267.8 293.424C267.8 293.424 279.196 296.115 284.9 305.37L284.607 307.458Z" fill="#263238"/>
<path d="M96.6275 305.38C96.6275 305.38 115.487 307.167 125.043 318.394C125.043 318.394 135.156 305.389 153.277 305.661C157.714 300.528 160.541 294.289 161.428 287.672C162.315 281.055 161.226 274.332 158.288 268.286C155.35 262.24 150.684 257.121 144.833 253.524C138.982 249.927 132.187 248.001 125.241 247.97C118.294 247.939 111.481 249.805 105.596 253.349C99.7103 256.894 94.9948 261.971 91.9984 267.99C89.002 274.01 87.8482 280.723 88.6714 287.347C89.4945 293.972 92.2607 300.236 96.6477 305.409L96.6275 305.38Z" fill="#322153"/>
<path opacity="0.3" d="M96.6275 305.38C96.6275 305.38 115.487 307.167 125.043 318.394C125.043 318.394 135.156 305.389 153.277 305.661C157.714 300.528 160.541 294.289 161.428 287.672C162.315 281.055 161.226 274.332 158.288 268.286C155.35 262.24 150.684 257.121 144.833 253.524C138.982 249.927 132.187 248.001 125.241 247.97C118.294 247.939 111.481 249.805 105.596 253.349C99.7103 256.894 94.9948 261.971 91.9984 267.99C89.002 274.01 87.8482 280.723 88.6714 287.347C89.4945 293.972 92.2607 300.236 96.6477 305.409L96.6275 305.38Z" fill="white"/>
<path d="M124.416 250.478L123.779 341.265H126.965L124.416 250.478Z" fill="#263238"/>
<path d="M125.377 314.975C125.377 314.975 131.738 303.981 143.236 300.611C143.236 300.611 131.101 303.36 125.094 312.838L125.377 314.975Z" fill="#263238"/>
<path d="M125.377 283.8C125.377 283.8 131.738 272.796 143.195 269.436C143.195 269.436 131.06 272.184 125.054 281.653L125.377 283.8Z" fill="#263238"/>
<path d="M125.377 299.387C125.377 299.387 131.738 288.384 143.195 285.023C143.195 285.023 131.06 287.772 125.054 297.251L125.377 299.387Z" fill="#263238"/>
<path d="M124.426 291.744C124.426 291.744 118.288 280.74 107.235 277.38C107.235 277.38 118.905 280.129 124.74 289.607L124.426 291.744Z" fill="#263238"/>
<path d="M124.426 307.031C124.426 307.031 118.288 296.027 107.235 292.657C107.235 292.657 118.905 295.415 124.74 304.884L124.426 307.031Z" fill="#263238"/>
<path d="M32.687 323.191C32.687 323.191 47.3196 324.58 54.7421 333.292C54.7421 333.292 62.5792 323.201 76.6455 323.405C80.0861 319.421 82.2773 314.579 82.9638 309.445C83.6503 304.311 82.8039 299.095 80.5233 294.405C78.2426 289.715 74.6215 285.744 70.0816 282.954C65.5417 280.164 60.27 278.67 54.8802 278.646C49.4905 278.622 44.2047 280.069 39.6383 282.819C35.0719 285.569 31.4128 289.508 29.0873 294.178C26.7618 298.848 25.8655 304.056 26.5028 309.196C27.1401 314.336 29.2848 319.196 32.687 323.211V323.191Z" fill="#322153"/>
<path opacity="0.5" d="M32.687 323.191C32.687 323.191 47.3196 324.58 54.7421 333.292C54.7421 333.292 62.5792 323.201 76.6455 323.405C80.0861 319.421 82.2773 314.579 82.9638 309.445C83.6503 304.311 82.8039 299.095 80.5233 294.405C78.2426 289.715 74.6215 285.744 70.0816 282.954C65.5417 280.164 60.27 278.67 54.8802 278.646C49.4905 278.622 44.2047 280.069 39.6383 282.819C35.0719 285.569 31.4128 289.508 29.0873 294.178C26.7618 298.848 25.8655 304.056 26.5028 309.196C27.1401 314.336 29.2848 319.196 32.687 323.211V323.191Z" fill="white"/>
<path d="M54.2567 280.585L53.7612 351.036H56.2287L54.2567 280.585Z" fill="#263238"/>
<path d="M54.9949 330.631C54.9949 330.631 59.9398 322.094 68.8286 319.481C68.8286 319.481 59.4443 321.618 54.7522 328.97L54.9949 330.631Z" fill="#263238"/>
<path d="M54.9949 306.438C54.9949 306.438 59.9398 297.902 68.8286 295.289C68.8286 295.289 59.4443 297.426 54.7522 304.778L54.9949 306.438Z" fill="#263238"/>
<path d="M54.9949 318.549C54.9949 318.549 59.9398 310.003 68.8286 307.4C68.8286 307.4 59.4443 309.537 54.7522 316.888L54.9949 318.549Z" fill="#263238"/>
<path d="M54.2467 312.605C54.2467 312.605 49.4736 304.069 40.8983 301.456C40.8983 301.456 49.9995 303.593 54.4792 310.945L54.2467 312.605Z" fill="#263238"/>
<path d="M54.2467 324.464C54.2467 324.464 49.4736 315.927 40.8983 313.314C40.8983 313.314 49.9995 315.451 54.4792 322.803L54.2467 324.464Z" fill="#263238"/>
<path d="M364.696 343.111L358.953 342.139C358.467 341.887 357.952 341.644 357.405 341.411L361.976 337.021L348.395 337.895L347.03 335.72L343.41 336.584L341.6 332.233L336.614 333.981L335.259 327.892L330.729 330.067L326.199 326.581L324.823 329.232L321.203 328.358L319.959 330.145L318.806 329.863L317.168 326.581L311.606 328.154L308.573 327.503L307.632 326.144H301.797L300.786 325.959L300.351 322.23L293.111 322.667L289.491 318.782L286.315 322.259L284.515 320.491L282.25 321.366L279.075 317.481C279.075 317.481 276.365 321.366 274.555 321.832C272.745 322.298 269.569 318.782 269.569 318.782L267.719 321.152L265.696 320.938L264.159 319.219L261.459 320.491L260.367 320.394L259.609 317.481L254.168 319.219L250.548 316.17L248.424 319.433L246.948 319.336L244.663 318.782L239.677 317.481L237.867 318.345L231.982 313.567V318.51H231.446L225.641 315.325L224.873 318.238H223.275L222.011 315.325L216.631 318.063H214.103L213.86 316.665L204.759 317.539L201.594 312.314L198.874 317.102L195.709 312.751L192.938 318.063H189.904L187.983 316.626L187.538 318.112L185 318.18L181.662 315.713L181.207 317.879L177.617 316.607L174.058 318.549H173.37L171.732 316.189L166.292 317.927L164.704 318.947L161.883 319.093L161.316 316.626L155.006 319.54L151.881 319.734C150.82 318.704 148.959 317.102 147.725 317.102C147.155 317.145 146.606 317.328 146.13 317.632C145.654 317.936 145.267 318.352 145.005 318.84L143.235 317.452L141.162 320.433L139.807 320.55L138.26 318.753L133.73 320.928L131.92 317.044L126.934 320.928L126.024 317.879L120.988 320.928L117.813 317.452L114.557 322.919L113.545 323.026L110.512 320.491L107.882 323.648L106.082 323.861L103.716 320.948L102.806 323.123L98.7611 320.948L96.496 324.833L91.9656 323.094L86.8589 326.319L80.6802 327.164L77.9903 325.309L75.7251 326.61L72.5499 325.309L71.6498 327.921L68.4746 327.047L66.088 329.339L65.6532 329.407L64.3588 326.581L59.8689 329.232L57.1588 325.755L53.5285 330.106L47.6431 330.534L42.2127 330.971L38.1678 332.709L34.234 334.855L31.3722 334.447L28.7835 336.031L28.5104 336.099L25.4767 335.263L23.2115 336.565L19.1666 336.137L18.5396 339.119C17.5284 339.469 16.5981 339.828 15.6475 340.207C14.7475 340.119 13.8273 340.051 13.2711 340.051C12.7149 340.051 11.9767 341.022 11.2486 342.159C4.64523 345.441 0.600272 349.55 5.81826 353.959C12.6745 359.786 30.088 357.222 38.1172 356.707C72.4993 354.512 98.4578 347.588 111.806 348.714C125.154 349.841 72.1555 376.52 129.472 376.529C186.789 376.539 304.417 370.158 321.608 368.604C338.799 367.05 304.548 360.99 309.473 353.726C314.397 346.461 354.382 352.619 361.107 350.89C365.566 349.744 364.14 346.879 362.704 345.063L364.696 343.111Z" fill="#322153"/>
<path opacity="0.4" d="M364.696 343.111L358.953 342.139C358.467 341.887 357.952 341.644 357.405 341.411L361.976 337.021L348.395 337.895L347.03 335.72L343.41 336.584L341.6 332.233L336.614 333.981L335.259 327.892L330.729 330.067L326.199 326.581L324.823 329.232L321.203 328.358L319.959 330.145L318.806 329.863L317.168 326.581L311.606 328.154L308.573 327.503L307.632 326.144H301.797L300.786 325.959L300.351 322.23L293.111 322.667L289.491 318.782L286.315 322.259L284.515 320.491L282.25 321.366L279.075 317.481C279.075 317.481 276.365 321.366 274.555 321.832C272.745 322.298 269.569 318.782 269.569 318.782L267.719 321.152L265.696 320.938L264.159 319.219L261.459 320.491L260.367 320.394L259.609 317.481L254.168 319.219L250.548 316.17L248.424 319.433L246.948 319.336L244.663 318.782L239.677 317.481L237.867 318.345L231.982 313.567V318.51H231.446L225.641 315.325L224.873 318.238H223.275L222.011 315.325L216.631 318.063H214.103L213.86 316.665L204.759 317.539L201.594 312.314L198.874 317.102L195.709 312.751L192.938 318.063H189.904L187.983 316.626L187.538 318.112L185 318.18L181.662 315.713L181.207 317.879L177.617 316.607L174.058 318.549H173.37L171.732 316.189L166.292 317.927L164.704 318.947L161.883 319.093L161.316 316.626L155.006 319.54L151.881 319.734C150.82 318.704 148.959 317.102 147.725 317.102C147.155 317.145 146.606 317.328 146.13 317.632C145.654 317.936 145.267 318.352 145.005 318.84L143.235 317.452L141.162 320.433L139.807 320.55L138.26 318.753L133.73 320.928L131.92 317.044L126.934 320.928L126.024 317.879L120.988 320.928L117.813 317.452L114.557 322.919L113.545 323.026L110.512 320.491L107.882 323.648L106.082 323.861L103.716 320.948L102.806 323.123L98.7611 320.948L96.496 324.833L91.9656 323.094L86.8589 326.319L80.6802 327.164L77.9903 325.309L75.7251 326.61L72.5499 325.309L71.6498 327.921L68.4746 327.047L66.088 329.339L65.6532 329.407L64.3588 326.581L59.8689 329.232L57.1588 325.755L53.5285 330.106L47.6431 330.534L42.2127 330.971L38.1678 332.709L34.234 334.855L31.3722 334.447L28.7835 336.031L28.5104 336.099L25.4767 335.263L23.2115 336.565L19.1666 336.137L18.5396 339.119C17.5284 339.469 16.5981 339.828 15.6475 340.207C14.7475 340.119 13.8273 340.051 13.2711 340.051C12.7149 340.051 11.9767 341.022 11.2486 342.159C4.64523 345.441 0.600272 349.55 5.81826 353.959C12.6745 359.786 30.088 357.222 38.1172 356.707C72.4993 354.512 98.4578 347.588 111.806 348.714C125.154 349.841 72.1555 376.52 129.472 376.529C186.789 376.539 304.417 370.158 321.608 368.604C338.799 367.05 304.548 360.99 309.473 353.726C314.397 346.461 354.382 352.619 361.107 350.89C365.566 349.744 364.14 346.879 362.704 345.063L364.696 343.111Z" fill="white"/>
<path d="M222.668 211.387C222.668 211.387 219.746 218.73 217.501 223.042C215.256 227.354 211.433 245.729 210.523 254.8C209.613 263.871 208.278 275.321 208.278 275.321C208.278 275.321 203.101 284.392 200.633 287.85C198.166 291.307 194.566 293.249 196.589 295.619C198.611 297.989 203.566 294.755 207.166 292.812C210.766 290.87 211.211 287.413 213.233 286.548C215.256 285.684 219.534 286.325 218.856 280.721C218.178 275.117 215.034 272.301 215.711 270.786C216.389 269.271 221.101 254.373 223.123 250.488C225.146 246.603 229.646 242.058 231.446 236.017C232.575 231.71 233.105 227.278 233.023 222.838C233.023 222.838 237.291 214.631 237.968 214.194C238.646 213.757 225.146 213.116 222.668 211.387Z" fill="white"/>
<path d="M222.668 211.387C222.668 211.387 219.746 218.73 217.501 223.042C215.256 227.354 211.433 245.729 210.523 254.8C209.613 263.871 208.278 275.321 208.278 275.321C208.278 275.321 203.101 284.392 200.633 287.85C198.166 291.307 194.566 293.249 196.589 295.619C198.611 297.989 203.566 294.755 207.166 292.812C210.766 290.87 211.211 287.413 213.233 286.548C215.256 285.684 219.534 286.325 218.856 280.721C218.178 275.117 215.034 272.301 215.711 270.786C216.389 269.271 221.101 254.373 223.123 250.488C225.146 246.603 229.646 242.058 231.446 236.017C232.575 231.71 233.105 227.278 233.023 222.838C233.023 222.838 237.291 214.631 237.968 214.194C238.646 213.757 225.146 213.116 222.668 211.387Z" fill="#D9D9D9" stroke="#263238" stroke-linecap="round" stroke-linejoin="round"/>
<path opacity="0.25" d="M219.442 218.992C221.404 219.963 225.166 221.75 227.472 221.75H230.697C230.697 221.75 233.205 227.257 228.908 236.551C224.61 245.845 217.076 256.849 215.286 264.075C214.275 268.105 211.625 280.672 209.461 291.016C211.1 289.209 211.747 287.199 213.223 286.568C215.246 285.703 219.523 286.344 218.846 280.74C218.168 275.137 215.023 272.32 215.701 270.805C216.378 269.29 221.101 254.373 223.123 250.488C225.146 246.603 229.646 242.058 231.446 236.017C232.574 231.71 233.105 227.278 233.023 222.838C233.023 222.838 237.291 214.631 237.968 214.194C238.646 213.757 225.146 213.116 222.668 211.387C222.668 211.387 221.101 215.233 219.442 218.992Z" fill="black"/>
<path d="M222.668 211.387C222.668 211.387 219.746 218.73 217.501 223.042C215.256 227.354 211.433 245.729 210.523 254.8C209.613 263.871 208.278 275.321 208.278 275.321C208.278 275.321 203.101 284.392 200.633 287.85C198.166 291.307 194.566 293.249 196.589 295.619C198.611 297.989 203.566 294.755 207.166 292.812C210.766 290.87 211.211 287.413 213.233 286.548C215.256 285.684 219.534 286.325 218.856 280.721C218.178 275.117 215.034 272.301 215.711 270.786C216.389 269.271 221.101 254.373 223.123 250.488C225.146 246.603 229.646 242.058 231.446 236.017C232.575 231.71 233.105 227.278 233.023 222.838C233.023 222.838 237.291 214.631 237.968 214.194C238.646 213.757 225.146 213.116 222.668 211.387Z" stroke="#263238" stroke-linecap="round" stroke-linejoin="round"/>
<path d="M196.578 295.639C198.601 298.018 203.556 294.774 207.156 292.832C210.756 290.89 211.201 287.432 213.223 286.568C215.246 285.703 219.523 286.344 218.846 280.741C218.249 275.749 215.701 272.971 215.61 271.359C215.142 272.947 214.148 274.345 212.778 275.341C209.856 277.72 208.278 275.341 208.278 275.341C208.278 275.341 203.101 284.412 200.633 287.869C198.166 291.327 194.556 293.298 196.578 295.639Z" fill="#263238" stroke="#263238" stroke-linecap="round" stroke-linejoin="round"/>
<path d="M218.856 280.789C217.763 281.711 216.549 282.491 215.246 283.11C211.423 284.839 210.523 288.073 205.133 292.181C203.904 293.218 202.448 293.977 200.873 294.4C199.298 294.824 197.643 294.902 196.032 294.629C196.134 294.987 196.317 295.318 196.568 295.6C198.591 297.979 203.546 294.735 207.146 292.793C210.746 290.851 211.191 287.393 213.213 286.529C215.236 285.664 219.483 286.335 218.856 280.789Z" fill="white" stroke="#263238" stroke-linecap="round" stroke-linejoin="round"/>
<path d="M280.703 212.466L285.881 220.031C285.881 220.031 288.126 229.967 291.503 236.444C294.881 242.922 303.203 253.926 307.248 258.694C311.293 263.463 312.648 272.738 312.648 272.738C312.648 272.738 310.626 276.846 311.971 279.867C313.316 282.887 317.148 285.053 317.826 287.859C318.503 290.666 322.548 297.367 325.693 296.93C328.838 296.493 330.871 292.618 328.393 286.995C325.916 281.372 321.193 277.06 319.848 271.223C318.503 265.386 314.226 241.194 310.626 233.638C308.583 229.281 306.175 225.091 303.426 221.109L300.048 208.144C300.048 208.144 287.458 214.631 280.703 212.466Z" fill="white"/>
<path d="M280.703 212.466L285.881 220.031C285.881 220.031 288.126 229.967 291.503 236.444C294.881 242.922 303.203 253.926 307.248 258.694C311.293 263.463 312.648 272.738 312.648 272.738C312.648 272.738 310.626 276.846 311.971 279.867C313.316 282.887 317.148 285.053 317.826 287.859C318.503 290.666 322.548 297.367 325.693 296.93C328.838 296.493 330.871 292.618 328.393 286.995C325.916 281.372 321.193 277.06 319.848 271.223C318.503 265.386 314.226 241.194 310.626 233.638C308.583 229.281 306.175 225.091 303.426 221.109L300.048 208.144C300.048 208.144 287.458 214.631 280.703 212.466Z" fill="#D9D9D9" stroke="#263238" stroke-linecap="round" stroke-linejoin="round"/>
<path opacity="0.25" d="M310.626 233.638C308.583 229.281 306.175 225.091 303.426 221.109L300.048 208.144C300.048 208.144 287.458 214.631 280.703 212.466L285.851 219.983C286.73 219.983 287.701 220.031 288.743 220.031C291.578 219.96 294.374 219.377 296.984 218.312C296.984 218.312 305.58 231.384 309.878 242.398C312.861 250.041 316.714 261.647 319.262 268.504C317.512 260.006 313.801 240.319 310.626 233.638Z" fill="black"/>
<path d="M280.703 212.466L285.881 220.031C285.881 220.031 288.126 229.967 291.503 236.444C294.881 242.922 303.203 253.926 307.248 258.694C311.293 263.463 312.648 272.738 312.648 272.738C312.648 272.738 310.626 276.846 311.971 279.867C313.316 282.887 317.148 285.053 317.826 287.859C318.503 290.666 322.548 297.367 325.693 296.93C328.838 296.493 330.871 292.618 328.393 286.995C325.916 281.372 321.193 277.06 319.848 271.223C318.503 265.386 314.226 241.194 310.626 233.638C308.583 229.281 306.175 225.091 303.426 221.109L300.048 208.144C300.048 208.144 287.458 214.631 280.703 212.466Z" stroke="#263238" stroke-linecap="round" stroke-linejoin="round"/>
<path d="M328.393 286.995C326.26 282.139 322.457 278.254 320.587 273.563C320.26 274.489 319.697 275.32 318.948 275.982C316.471 277.924 312.648 272.738 312.648 272.738C312.648 272.738 310.626 276.846 311.971 279.866C313.316 282.887 317.148 285.053 317.826 287.859C318.503 290.666 322.548 297.367 325.693 296.93C328.838 296.493 330.871 292.618 328.393 286.995Z" fill="#263238" stroke="#263238" stroke-linecap="round" stroke-linejoin="round"/>
<path d="M317.826 287.859C318.11 288.873 318.517 289.851 319.039 290.773C318.917 290.527 318.813 290.274 318.726 290.015C317.593 286.558 316.926 282.246 314.448 280.07C313.237 278.925 312.278 277.558 311.627 276.05C311.378 277.325 311.496 278.642 311.971 279.857C313.326 282.896 317.168 285.053 317.826 287.859Z" fill="white" stroke="#263238" stroke-linecap="round" stroke-linejoin="round"/>
<path d="M329.303 289.772C329.03 291.589 328.474 293.657 327.281 294.774C325.188 296.784 321.325 294.463 319.504 291.598C321.132 294.376 323.62 297.222 325.703 296.93C328.292 296.581 330.122 293.861 329.303 289.772Z" fill="white" stroke="#263238" stroke-linecap="round" stroke-linejoin="round"/>
<path d="M289.481 144.637C289.481 144.637 289.926 145.065 287.903 146.356C285.881 147.648 280.936 148.736 282.058 150.465C283.181 152.193 284.303 153.058 283.403 153.708C282.503 154.359 281.158 154.359 280.036 155.214C278.913 156.068 275.536 145.715 275.536 145.715C275.536 145.715 283.858 141.792 289.481 144.637Z" fill="white"/>
<path d="M289.481 144.637C289.481 144.637 289.926 145.065 287.903 146.356C285.881 147.648 280.936 148.736 282.058 150.465C283.181 152.193 284.303 153.058 283.403 153.708C282.503 154.359 281.158 154.359 280.036 155.214C278.913 156.068 275.536 145.715 275.536 145.715C275.536 145.715 283.858 141.792 289.481 144.637Z" fill="#322153"/>
<path opacity="0.25" d="M289.481 144.637C289.481 144.637 289.926 145.065 287.903 146.356C285.881 147.648 280.936 148.736 282.058 150.465C283.181 152.193 284.303 153.058 283.403 153.708C282.503 154.359 281.158 154.359 280.036 155.214C278.913 156.068 275.536 145.715 275.536 145.715C275.536 145.715 283.858 141.792 289.481 144.637Z" fill="black"/>
<path d="M289.481 144.637C289.481 144.637 289.926 145.065 287.903 146.356C285.881 147.648 280.936 148.736 282.058 150.465C283.181 152.193 284.303 153.058 283.403 153.708C282.503 154.359 281.158 154.359 280.036 155.214C278.913 156.068 275.536 145.715 275.536 145.715C275.536 145.715 283.858 141.792 289.481 144.637Z" stroke="#263238" stroke-linecap="round" stroke-linejoin="round"/>
<path d="M237.968 151.766L235.946 162.993C235.946 162.993 227.623 180.28 224.701 189.138C221.779 197.995 217.501 213.544 217.501 213.544C217.501 213.544 220.646 215.923 230.101 217.428C239.556 218.934 251.438 213.116 251.438 213.116C251.438 213.116 255.038 194.537 256.161 192.158C257.283 189.779 260.428 183.514 260.428 183.514H263.361L271.006 212.038C271.006 212.038 277.973 213.767 282.028 214.408C286.083 215.049 292.14 215.486 297.551 211.815C301.058 209.256 303.969 206.021 306.095 202.317C306.095 202.317 297.551 182.893 293.718 174.88C289.885 166.868 281.128 153.271 281.128 153.271L278.428 144.414L237.968 151.766Z" fill="#263238" stroke="#263238" stroke-linecap="round" stroke-linejoin="round"/>
<path d="M238.423 167.315L247.868 175.958" stroke="white" stroke-linecap="round" stroke-linejoin="round"/>
<path d="M249.901 178.746L251.468 179.843" stroke="white" stroke-linecap="round" stroke-linejoin="round"/>
<path d="M238.646 170.772L248.111 177.473" stroke="white" stroke-linecap="round" stroke-linejoin="round"/>
<path d="M246.645 212.689C247.99 212.209 249.301 211.645 250.568 210.999" stroke="white" stroke-linecap="round" stroke-linejoin="round"/>
<path d="M219.979 211.815C226.724 214.51 234.133 215.289 241.326 214.058" stroke="white" stroke-linecap="round" stroke-linejoin="round"/>
<path d="M271.936 209.872C271.936 209.872 287.458 219.38 304.295 201.229" stroke="white" stroke-linecap="round" stroke-linejoin="round"/>
<path d="M283.858 161.051L279.358 169.257" stroke="white" stroke-linecap="round" stroke-linejoin="round"/>
<path d="M247.191 158.244C255.544 159.054 263.965 157.555 271.461 153.922" stroke="white" stroke-linecap="round" stroke-linejoin="round"/>
<path d="M279.915 149.212L278.458 144.414L238.009 151.766L237.645 153.767C244.261 155.623 251.225 156.045 258.031 155C265.524 153.844 272.862 151.903 279.915 149.212Z" fill="white"/>
<path d="M279.915 149.212L278.458 144.414L238.009 151.766L237.645 153.767C244.261 155.623 251.225 156.045 258.031 155C265.524 153.844 272.862 151.903 279.915 149.212Z" fill="#949494" stroke="#263238" stroke-linecap="round" stroke-linejoin="round"/>
<path d="M279.915 149.212L278.458 144.414L238.009 151.766L237.645 153.767C244.261 155.623 251.225 156.045 258.031 155C265.524 153.844 272.862 151.903 279.915 149.212V149.212Z" stroke="#263238" stroke-linecap="round" stroke-linejoin="round"/>
<path d="M302.141 66.2135C299.926 58.5115 296.995 51.0161 293.384 43.8177C290.644 38.2139 287.923 31.1922 283.696 26.4625C280.996 23.4421 276.041 21.0626 274.919 21.4997C273.796 21.9367 268.851 23.8694 268.851 26.4625C268.851 29.0556 270.651 29.0556 270.651 29.0556C270.651 29.0556 270.196 32.2994 271.551 33.591C272.907 34.8827 279.874 34.4554 279.874 34.4554C281.118 36.2127 282.153 38.099 282.958 40.0786C284.303 44.3907 285.496 45.2551 286.396 53.0344C287.286 59.2241 288.563 65.357 290.219 71.3996C289.352 71.9118 288.588 72.5697 287.964 73.342C286.619 74.8571 278.074 83.054 278.074 83.054C275.602 84.1796 273.043 85.1181 270.419 85.8607C268.117 86.5484 265.889 87.446 263.765 88.5412C262.38 88.3858 260.984 88.2402 260.236 88.2402C258.658 88.2402 247.646 90.1825 247.646 90.1825C245.1 88.7286 242.385 87.5681 239.556 86.7251C236.932 85.9824 234.372 85.044 231.901 83.9183C231.901 83.9183 223.356 75.7117 222.011 74.2064C221.387 73.4341 220.623 72.7761 219.756 72.264C221.412 66.2213 222.688 60.0885 223.578 53.8987C224.306 47.6248 226.187 40.4962 230.111 35.3198C230.111 35.3198 237.078 35.7568 238.433 34.4554C239.788 33.154 239.323 29.9199 239.323 29.9199C239.323 29.9199 241.123 29.9199 241.123 27.3268C241.123 24.7338 236.178 22.7914 235.056 22.364C233.933 21.9367 228.988 24.3064 226.278 27.3268C223.568 30.3473 223.811 33.3774 221.111 37.6992C218.411 42.021 208.976 62.9503 207.833 67.0778C206.691 71.2054 205.366 73.5557 205.588 75.5078C205.811 77.4599 216.611 88.6772 219.311 91.7073C222.011 94.7374 232.356 105.1 232.356 105.1C232.356 105.1 236.178 123.242 237.301 129.73C238.423 136.217 237.756 154.136 237.756 154.136C237.756 154.136 250.123 151.543 261.823 150.251C273.523 148.959 286.336 144.637 287.913 144.637H289.491C289.491 144.637 280.713 134.265 280.713 132.75C280.713 131.546 281.007 109.538 281.118 100.701C284.384 97.3985 289.005 92.6979 290.674 90.8235C293.374 87.7934 304.174 76.5664 304.396 74.624C304.619 72.6816 303.264 70.3216 302.141 66.2135Z" fill="white"/>
<path d="M302.141 66.2135C299.926 58.5115 296.995 51.0161 293.384 43.8177C290.644 38.2139 287.923 31.1922 283.696 26.4625C280.996 23.4421 276.041 21.0626 274.919 21.4997C273.796 21.9367 268.851 23.8694 268.851 26.4625C268.851 29.0556 270.651 29.0556 270.651 29.0556C270.651 29.0556 270.196 32.2994 271.551 33.591C272.907 34.8827 279.874 34.4554 279.874 34.4554C281.118 36.2127 282.153 38.099 282.958 40.0786C284.303 44.3907 285.496 45.2551 286.396 53.0344C287.286 59.2241 288.563 65.357 290.219 71.3996C289.352 71.9118 288.588 72.5697 287.964 73.342C286.619 74.8571 278.074 83.054 278.074 83.054C275.602 84.1796 273.043 85.1181 270.419 85.8607C268.117 86.5484 265.889 87.446 263.765 88.5412C262.38 88.3858 260.984 88.2402 260.236 88.2402C258.658 88.2402 247.646 90.1825 247.646 90.1825C245.1 88.7286 242.385 87.5681 239.556 86.7251C236.932 85.9824 234.372 85.044 231.901 83.9183C231.901 83.9183 223.356 75.7117 222.011 74.2064C221.387 73.4341 220.623 72.7761 219.756 72.264C221.412 66.2213 222.688 60.0885 223.578 53.8987C224.306 47.6248 226.187 40.4962 230.111 35.3198C230.111 35.3198 237.078 35.7568 238.433 34.4554C239.788 33.154 239.323 29.9199 239.323 29.9199C239.323 29.9199 241.123 29.9199 241.123 27.3268C241.123 24.7338 236.178 22.7914 235.056 22.364C233.933 21.9367 228.988 24.3064 226.278 27.3268C223.568 30.3473 223.811 33.3774 221.111 37.6992C218.411 42.021 208.976 62.9503 207.833 67.0778C206.691 71.2054 205.366 73.5557 205.588 75.5078C205.811 77.4599 216.611 88.6772 219.311 91.7073C222.011 94.7374 232.356 105.1 232.356 105.1C232.356 105.1 236.178 123.242 237.301 129.73C238.423 136.217 237.756 154.136 237.756 154.136C237.756 154.136 250.123 151.543 261.823 150.251C273.523 148.959 286.336 144.637 287.913 144.637H289.491C289.491 144.637 280.713 134.265 280.713 132.75C280.713 131.546 281.007 109.538 281.118 100.701C284.384 97.3985 289.005 92.6979 290.674 90.8235C293.374 87.7934 304.174 76.5664 304.396 74.624C304.619 72.6816 303.264 70.3216 302.141 66.2135Z" fill="#D9D9D9" stroke="#263238" stroke-linecap="round" stroke-linejoin="round"/>
<path opacity="0.25" d="M238.646 134.022C237.968 130.992 237.068 113.491 235.946 107.878C234.823 102.264 232.123 100.108 230.546 97.7287C228.968 95.3493 224.478 91.9015 218.846 86.0744C213.213 80.2472 208.056 75.2844 208.966 70.9626C209.583 67.9616 215.65 51.0628 219.291 41.0498C215.519 48.4794 208.774 63.6495 207.834 67.0778C206.711 71.186 205.366 73.5557 205.589 75.5078C205.811 77.4599 216.611 88.6772 219.311 91.7073C222.011 94.7374 232.356 105.1 232.356 105.1C232.356 105.1 236.179 123.242 237.301 129.73C237.753 133.202 237.966 136.7 237.938 140.199C238.504 137.431 238.868 134.993 238.646 134.022Z" fill="black"/>
<path opacity="0.25" d="M300.989 73.5556C300.989 76.7994 284.566 88.4634 280.764 94.514C276.962 100.565 278.064 115.472 278.064 121.513C278.137 123.966 278.063 126.421 277.841 128.865L280.774 132.284C280.774 128.826 281.057 108.975 281.168 100.72C284.435 97.4179 289.056 92.7173 290.724 90.8429C293.425 87.8127 304.225 76.5857 304.447 74.6433C304.669 72.701 303.325 70.3215 302.202 66.2134C299.987 58.5114 297.056 51.0161 293.445 43.8176C290.704 38.2139 287.984 31.1921 283.757 26.4624C283.757 26.4624 290.886 43.099 295.164 54.1123C299.441 65.1256 300.989 70.3215 300.989 73.5556Z" fill="black"/>
<path d="M302.141 66.2135C299.926 58.5115 296.995 51.0161 293.384 43.8177C290.644 38.2139 287.923 31.1922 283.696 26.4625C280.996 23.4421 276.041 21.0626 274.919 21.4997C273.796 21.9367 268.851 23.8694 268.851 26.4625C268.851 29.0556 270.651 29.0556 270.651 29.0556C270.651 29.0556 270.196 32.2994 271.551 33.591C272.907 34.8827 279.874 34.4554 279.874 34.4554C281.118 36.2127 282.153 38.099 282.958 40.0786C284.303 44.3907 285.496 45.2551 286.396 53.0344C287.286 59.2241 288.563 65.357 290.219 71.3996C289.352 71.9118 288.588 72.5697 287.964 73.342C286.619 74.8571 278.074 83.054 278.074 83.054C275.602 84.1796 273.043 85.1181 270.419 85.8607C268.117 86.5484 265.889 87.446 263.765 88.5412C262.38 88.3858 260.984 88.2401 260.236 88.2401C258.658 88.2401 247.646 90.1825 247.646 90.1825C245.1 88.7286 242.385 87.5681 239.556 86.7251C236.932 85.9824 234.372 85.044 231.901 83.9183C231.901 83.9183 223.356 75.7117 222.011 74.2064C221.387 73.4341 220.623 72.7761 219.756 72.264C221.412 66.2213 222.688 60.0885 223.578 53.8987C224.306 47.6248 226.187 40.4962 230.111 35.3198C230.111 35.3198 237.078 35.7568 238.433 34.4554C239.788 33.154 239.323 29.9199 239.323 29.9199C239.323 29.9199 241.123 29.9199 241.123 27.3268C241.123 24.7338 236.178 22.7914 235.056 22.364C233.933 21.9367 228.988 24.3064 226.278 27.3268C223.568 30.3473 223.811 33.3774 221.111 37.6992C218.411 42.021 208.976 62.9503 207.833 67.0778C206.691 71.2054 205.366 73.5557 205.588 75.5078C205.811 77.4599 216.611 88.6772 219.311 91.7073C222.011 94.7374 232.356 105.1 232.356 105.1C232.356 105.1 236.178 123.242 237.301 129.73C238.423 136.217 237.756 154.136 237.756 154.136C237.756 154.136 250.123 151.543 261.823 150.251C273.523 148.959 286.336 144.637 287.913 144.637H289.491C289.491 144.637 280.713 134.265 280.713 132.75C280.713 131.546 281.007 109.538 281.118 100.701C284.384 97.3985 289.005 92.6979 290.674 90.8235C293.374 87.7934 304.174 76.5664 304.396 74.624C304.619 72.6816 303.264 70.3216 302.141 66.2135Z" stroke="#263238" stroke-linecap="round" stroke-linejoin="round"/>
<path d="M239.303 29.92C239.303 29.92 233.681 25.3845 233.236 27.3269C232.791 29.2693 236.613 31.8624 236.613 31.8624" stroke="#263238" stroke-linecap="round" stroke-linejoin="round"/>
<path d="M231.668 29.4924C231.728 30.0595 231.671 30.6324 231.5 31.1783C231.329 31.7241 231.048 32.2322 230.672 32.6734C230.296 33.1146 229.834 33.4802 229.31 33.7493C228.787 34.0184 228.214 34.1857 227.623 34.2416" stroke="#263238" stroke-linecap="round" stroke-linejoin="round"/>
<path d="M234.823 30.5706L230.323 28.4048L230.546 26.8995L231.891 26.2488" stroke="#263238" stroke-linecap="round" stroke-linejoin="round"/>
<path d="M235.258 23.7529C235.483 24.9498 235.622 26.1602 235.673 27.3755" stroke="#263238" stroke-linecap="round" stroke-linejoin="round"/>
<path d="M237.766 24.355C238.015 25.8215 238.015 27.3171 237.766 28.7836" stroke="#263238" stroke-linecap="round" stroke-linejoin="round"/>
<path d="M240.072 25.365C240.172 26.0389 240.09 26.7263 239.833 27.3608C239.576 27.9953 239.153 28.5555 238.605 28.9875" stroke="#263238" stroke-linecap="round" stroke-linejoin="round"/>
<path d="M270.652 29.0555C270.652 29.0555 278.458 27.1131 277.336 29.2692C276.213 31.4252 272.613 32.0856 272.613 32.0856" stroke="#263238" stroke-linecap="round" stroke-linejoin="round"/>
<path d="M282.058 32.2993C281.077 31.5521 280.02 30.9013 278.903 30.3569C277.781 29.9199 277.558 28.4145 277.558 28.4145C277.558 28.4145 280.036 27.9872 280.036 26.9092C280.036 25.8312 278.236 24.9668 278.236 24.9668L278.003 26.0545" stroke="#263238" stroke-linecap="round" stroke-linejoin="round"/>
<path d="M275.071 23.3062C275.071 23.3062 274.181 27.5891 277.558 28.3661" stroke="#263238" stroke-linecap="round" stroke-linejoin="round"/>
<path d="M272.553 23.5488C272.553 23.5488 271.926 26.7732 274.019 28.4048" stroke="#263238" stroke-linecap="round" stroke-linejoin="round"/>
<path d="M270.652 24.7627C270.652 24.7627 270.015 27.5792 271.481 28.5795" stroke="#263238" stroke-linecap="round" stroke-linejoin="round"/>
<path d="M261.813 150.251C273.513 148.95 286.326 144.637 287.903 144.637H289.481C289.481 144.637 280.703 134.265 280.703 132.75C280.703 131.546 280.996 109.538 281.108 100.701L286.164 95.5436C283.686 94.8346 281.007 93.6012 280.016 91.4743C278.782 88.8423 279.378 84.2874 280.016 81.1213L277.993 83.0637C275.521 84.1894 272.962 85.1278 270.338 85.8705C268.036 86.5582 265.808 87.4557 263.684 88.551C262.299 88.3956 260.903 88.2499 260.155 88.2499C258.577 88.2499 247.565 90.1923 247.565 90.1923C245.019 88.7384 242.304 87.5779 239.475 86.7348C236.851 85.9922 234.292 85.0537 231.82 83.9281L231.496 83.6173C231.97 87.1594 232.079 90.7379 231.82 94.3005C231.395 97.4957 228.726 98.9913 226.875 99.6517C229.757 102.565 232.275 105.1 232.275 105.1C232.275 105.1 236.098 123.242 237.22 129.73C238.342 136.217 237.675 154.136 237.675 154.136C237.675 154.136 250.113 151.504 261.813 150.251Z" fill="#322153" stroke="#263238" stroke-linecap="round" stroke-linejoin="round"/>
<path d="M256.919 110.092C255.996 109.139 255.151 108.119 254.391 107.042" stroke="#263238" stroke-linecap="round" stroke-linejoin="round"/>
<path d="M280.703 132.75C276.358 127.803 271.625 123.183 266.546 118.93C263.947 116.803 261.854 114.958 260.196 113.384" stroke="#263238" stroke-linecap="round" stroke-linejoin="round"/>
<path d="M243.075 80.3442C243.075 80.3442 241.851 77.9842 239.192 73.2739C236.532 68.5636 238.777 60.3279 248.799 57.1812C258.82 54.0346 265.15 59.9297 266.576 63.8533C268.002 67.777 266.778 72.0988 265.959 74.4588C265.475 75.8512 265.202 77.3036 265.15 78.7709C264.623 78.1627 264.003 77.6354 263.31 77.2073C261.874 76.2361 259.427 65.8151 256.15 65.0382C252.874 64.2612 245.937 66.0385 245.371 70.8945C244.804 75.7505 244.713 83.2869 243.075 80.3442Z" fill="#263238" stroke="#263238" stroke-linecap="round" stroke-linejoin="round"/>
<path d="M264.331 77.9842C264.331 77.9842 265.555 74.653 267.193 76.2263C268.831 77.7997 268.002 81.0823 266.981 82.5002C265.959 83.9182 265.151 83.0927 264.534 81.5291C264.169 80.3804 264.1 79.1642 264.331 77.9842Z" fill="white"/>
<path d="M264.331 77.9842C264.331 77.9842 265.555 74.653 267.193 76.2263C268.831 77.7997 268.002 81.0823 266.981 82.5002C265.959 83.9182 265.151 83.0927 264.534 81.5291C264.169 80.3804 264.1 79.1642 264.331 77.9842Z" fill="#D9D9D9" stroke="#263238" stroke-linecap="round" stroke-linejoin="round"/>
<path d="M264.331 77.9842C264.331 77.9842 265.555 74.653 267.193 76.2263C268.831 77.7997 268.002 81.0823 266.981 82.5002C265.959 83.9182 265.151 83.0927 264.534 81.5291C264.169 80.3804 264.1 79.1642 264.331 77.9842V77.9842Z" stroke="#263238" stroke-linecap="round" stroke-linejoin="round"/>
<path d="M244.005 79.9267C244.005 79.9267 241.892 77.0131 240.759 78.9555C239.627 80.8979 241.346 83.8989 242.721 84.9478C244.096 85.9967 244.652 85.0449 244.804 83.3745C244.829 82.1804 244.555 80.998 244.005 79.9267Z" fill="white"/>
<path d="M244.005 79.9267C244.005 79.9267 241.892 77.0131 240.759 78.9555C239.627 80.8979 241.346 83.8989 242.721 84.9478C244.096 85.9967 244.652 85.0449 244.804 83.3745C244.829 82.1804 244.555 80.998 244.005 79.9267Z" fill="#D9D9D9" stroke="#263238" stroke-linecap="round" stroke-linejoin="round"/>
<path d="M244.005 79.9267C244.005 79.9267 241.892 77.0131 240.759 78.9555C239.627 80.8979 241.346 83.8989 242.721 84.9478C244.096 85.9967 244.652 85.0449 244.804 83.3745C244.829 82.1804 244.555 80.998 244.005 79.9267V79.9267Z" stroke="#263238" stroke-linecap="round" stroke-linejoin="round"/>
<path d="M246.756 89.1725C246.664 91.9982 246.867 94.8256 247.363 97.6122C247.801 100.135 248.416 102.627 249.203 105.071L256.565 98.3989L265.757 103.109C265.757 103.109 267.193 94.0868 264.331 90.1534C261.47 86.2201 252.065 85.8413 249.618 87.2399C248.555 87.721 247.587 88.3749 246.756 89.1725Z" fill="white" stroke="#263238" stroke-linecap="round" stroke-linejoin="round"/>
<path d="M249.416 91.144C249.416 91.144 254.735 104.488 257.596 103.507C260.458 102.526 261.277 90.7458 261.277 90.7458C261.277 90.7458 252.449 92.5134 249.416 91.144Z" fill="white"/>
<path d="M249.416 91.144C249.416 91.144 254.735 104.488 257.596 103.507C260.458 102.526 261.277 90.7458 261.277 90.7458C261.277 90.7458 252.449 92.5134 249.416 91.144Z" fill="#D9D9D9" stroke="#263238" stroke-linecap="round" stroke-linejoin="round"/>
<path opacity="0.25" d="M249.416 91.144C249.416 91.144 254.735 104.488 257.596 103.507C260.458 102.526 261.277 90.7458 261.277 90.7458C261.277 90.7458 252.449 92.5134 249.416 91.144Z" fill="black"/>
<path d="M249.416 91.144C249.416 91.144 254.735 104.488 257.596 103.507C260.458 102.526 261.277 90.7458 261.277 90.7458C261.277 90.7458 252.449 92.5134 249.416 91.144Z" stroke="#263238" stroke-linecap="round" stroke-linejoin="round"/>
<path d="M242.458 74.6531C242.458 74.6531 243.469 83.2871 244.713 87.2107C245.957 91.1343 250.68 94.6986 257.01 93.7177C263.34 92.7368 265.595 83.8795 265.595 83.287C265.595 82.6946 265.191 72.0989 262.734 68.1753C260.276 64.2516 255.584 60.5223 249.041 63.465C242.499 66.4077 241.851 72.4971 242.458 74.6531Z" fill="white"/>
<path d="M242.458 74.6531C242.458 74.6531 243.469 83.2871 244.713 87.2107C245.957 91.1343 250.68 94.6986 257.01 93.7177C263.34 92.7368 265.595 83.8795 265.595 83.287C265.595 82.6946 265.191 72.0989 262.734 68.1753C260.276 64.2516 255.584 60.5223 249.041 63.465C242.499 66.4077 241.851 72.4971 242.458 74.6531Z" fill="#D9D9D9" stroke="#263238" stroke-linecap="round" stroke-linejoin="round"/>
<path opacity="0.25" d="M265.595 83.287C265.595 82.6946 265.191 72.0989 262.734 68.1753C262.245 67.3899 261.683 66.6488 261.055 65.9609C261.652 68.4083 264.746 81.5875 262.299 86.0841C259.599 91.0566 253.754 91.4936 248.354 88.9005C244.309 86.9582 243.196 75.6826 242.863 69.9623C242.306 71.4664 242.181 73.0864 242.499 74.6531C242.499 74.6531 243.51 83.287 244.754 87.2107C245.998 91.1343 250.72 94.6986 257.05 93.7177C263.381 92.7368 265.595 83.8795 265.595 83.287Z" fill="black"/>
<path d="M242.458 74.6531C242.458 74.6531 243.469 83.287 244.713 87.2107C245.957 91.1343 250.68 94.6986 257.01 93.7177C263.34 92.7368 265.595 83.8795 265.595 83.287C265.595 82.6946 265.191 72.0989 262.734 68.1753C260.276 64.2516 255.584 60.5223 249.041 63.465C242.499 66.4077 241.851 72.4971 242.458 74.6531Z" stroke="#263238" stroke-linecap="round" stroke-linejoin="round"/>
<path d="M248.273 79.7033C250.065 80.207 251.964 80.2506 253.779 79.8297C255.594 79.4088 257.263 78.5381 258.618 77.3044C259.528 77.5958 259.184 82.8694 254.158 83.6366C252.839 83.8322 251.492 83.5329 250.396 82.8006C249.301 82.0683 248.54 80.9593 248.273 79.7033Z" fill="white" stroke="#263238" stroke-linecap="round" stroke-linejoin="round"/>
<path d="M251.175 75.0318C251.175 75.0318 249.921 76.7119 250.548 77.3044C251.175 77.8968 253.663 78.023 254.917 76.7119C256.171 75.4008 254.168 74.1965 254.168 74.1965" stroke="#263238" stroke-linecap="round" stroke-linejoin="round"/>
<path d="M246.382 75.8281C246.382 75.8281 246.999 73.8857 250.265 73.8857" stroke="#263238" stroke-linecap="round" stroke-linejoin="round"/>
<path d="M255.948 73.0798C256.546 72.4467 257.363 72.0443 258.247 71.9478C259.131 71.8513 260.021 72.0673 260.752 72.5554" stroke="#263238" stroke-linecap="round" stroke-linejoin="round"/>
<path d="M249.82 69.9235C249.82 69.9235 245.148 69.03 244.572 73.0993" stroke="#263238" stroke-width="2" stroke-linecap="round" stroke-linejoin="round"/>
<path d="M254.775 69.4183C254.775 69.4183 258.072 66.8544 261.136 69.6028" stroke="#263238" stroke-width="2" stroke-linecap="round" stroke-linejoin="round"/>
<path d="M138.695 73.5556C138.695 73.5556 138.695 68.9812 133.568 65.6403C128.441 62.2994 116.155 64.2321 111.574 69.865C106.993 75.498 106.619 79.577 101.31 81.1309C96.0007 82.6848 83.8962 84.4912 75.4827 92.9212C67.0692 101.351 70.7198 118.619 74.5726 120.027C78.4254 121.435 73.6524 118.794 74.1984 114.2C74.2984 112.933 74.7626 111.717 75.5392 110.689C76.3158 109.66 77.3745 108.858 78.5973 108.373C78.5973 108.373 73.6524 115.938 84.0985 125.796C94.5446 135.654 106.093 133.371 115.811 131.429C125.529 129.487 137.431 122.63 138.351 114.53C139.272 106.43 136.147 101.856 138.351 98.1656C140.556 94.4751 148.615 94.9898 149.718 87.9584C150.82 80.9269 147.857 71.6229 138.695 73.5556Z" fill="#263238" stroke="#263238" stroke-linecap="round" stroke-linejoin="round"/>
<path d="M173.998 199.335C173.998 199.335 179.114 193.119 181.076 192.915C183.038 192.711 185.95 196.985 187.225 200.248C188.499 203.511 191.462 210.212 191.462 213.475C191.462 219.176 188.913 221.002 187.862 219.982C186.81 218.963 184.039 212.66 182.563 211.436C181.622 210.681 180.526 210.125 179.347 209.804C179.347 209.804 176.091 201.889 173.998 199.335Z" fill="white" stroke="#263238" stroke-linecap="round" stroke-linejoin="round"/>
<path d="M179.185 194.469C179.185 194.469 185.384 200.423 187.588 206.124C189.793 211.824 190.47 217.389 188.478 219.72" stroke="#263238" stroke-linecap="round" stroke-linejoin="round"/>
<path d="M162.591 243.398C162.591 243.398 168.729 243.806 170.853 244.01C172.976 244.214 172.976 249.099 172.127 252.556C171.277 256.014 170.215 258.257 171.115 262.123C172.015 265.988 169.629 270.261 168.355 272.097C167.081 273.932 164.31 273.524 164.118 272.097C163.926 270.669 164.755 262.327 161.792 257.645C158.829 252.964 159.193 246.681 162.591 243.398Z" fill="white" stroke="#263238" stroke-linecap="round" stroke-linejoin="round"/>
<path d="M168.345 243.767C169.639 246.035 170.105 248.654 169.67 251.206C169.002 255.664 169.892 262.686 169.892 264.386C169.892 266.085 167.455 272.67 166.575 272.884" stroke="#263238" stroke-linecap="round" stroke-linejoin="round"/>
<path d="M190.38 33.989C189.277 33.989 184.878 35.0476 184.514 36.281C184.15 37.5144 183.604 49.4795 183.604 49.4795C183.604 49.4795 175.899 63.5618 173.34 68.8451C170.782 74.1284 163.986 86.8025 163.986 86.8025L146.947 103.876C146.947 103.876 144.378 105.11 139.979 107.567C139.565 107.8 139.13 108.062 138.695 108.324L130.605 110.033L123.668 108.771C120.377 106.307 116.951 104.015 113.404 101.905C109.005 99.4475 106.437 98.2141 106.437 98.2141L89.3973 81.1405C89.3973 81.1405 82.6119 68.5149 80.0434 63.1831C77.4748 57.8512 69.7793 43.8175 69.7793 43.8175C69.7793 43.8175 69.2332 31.8523 68.8692 30.6189C68.5051 29.3855 64.0961 28.3269 63.004 28.3269C61.9119 28.3269 59.8894 33.9598 60.6175 35.1932C61.3456 36.4267 63.3478 36.417 63.3478 36.417C63.2545 37.8238 63.2545 39.2348 63.3478 40.6416C63.5298 41.5254 66.2804 43.2833 66.2804 43.2833C66.2804 43.2833 70.1332 58.599 72.6917 69.1559C75.2501 79.7128 78.5568 86.7637 80.0231 87.9971C81.4894 89.2305 95.9704 103.303 98.9029 108.062C101.27 111.583 104.037 114.841 107.155 117.774C107.155 117.774 105.506 125.543 105.506 129.739C105.506 133.935 109.905 142.938 111.372 146.987C112.838 151.037 114.668 169.869 114.668 170.403C114.668 170.937 115.578 182.543 115.578 182.543C115.578 182.543 105.688 203.317 102.574 218.098C99.4591 232.88 100.915 241.339 108.065 244.505C115.214 247.671 147.655 252.071 148.575 253.129C149.495 254.188 150.223 254.887 151.508 254.887C152.792 254.887 154.44 254.188 155.552 254.887C156.665 255.586 156.645 256.121 157.929 256.121C158.542 256.2 159.128 256.417 159.637 256.755C160.147 257.092 160.566 257.54 160.861 258.063C161.226 258.762 163.43 257.354 164.158 252.071C164.886 246.787 163.794 244.301 162.692 244.155C161.59 244.01 161.782 242.213 159.951 242.213C157.983 242.333 156.024 242.57 154.086 242.922C153.131 242.646 152.148 242.47 151.154 242.398C150.051 242.398 148.767 241.514 148.029 241.339C147.291 241.164 135.206 236.405 135.206 236.405L134.741 236.172C146.977 229.471 164.33 217.613 164.33 217.613C164.33 217.613 169.315 217.312 171.5 215.515C172.98 214.243 174.334 212.842 175.545 211.329L179.286 209.833C179.239 207.481 178.48 205.194 177.102 203.249C174.928 200.559 173.987 199.364 173.987 199.364C173.987 199.364 168.072 202.054 166.201 202.656C164.33 203.258 161.529 203.55 159.972 205.045C158.414 206.541 154.369 209.532 154.369 209.532L140.667 216.408C140.667 216.408 158.111 194.877 160.285 185.903C162.156 178.211 159.274 169.713 154.501 163.507C150.891 158.846 145.824 155.291 141.982 150.775C140.141 148.629 138.736 147.036 138.867 146.113C139.079 144.686 140.819 137.499 142.396 131.38L147.311 122.329C148.524 121.115 153.945 114.559 154.45 113.724C157.383 108.965 171.864 94.8828 173.33 93.6494C174.796 92.416 178.093 85.3846 180.662 74.818C183.23 64.2514 187.073 48.9454 187.073 48.9454C187.073 48.9454 189.823 47.1875 190.005 46.3037C190.099 44.8969 190.099 43.4858 190.005 42.079C190.005 42.079 192.028 42.079 192.756 40.8456C193.484 39.6122 191.482 33.989 190.38 33.989Z" fill="white" stroke="#263238" stroke-linecap="round" stroke-linejoin="round"/>
<path d="M173.998 199.335C173.998 199.335 168.082 202.025 166.211 202.627C164.34 203.229 161.539 203.521 159.982 205.016C158.425 206.512 154.38 209.503 154.38 209.503L140.677 216.379C140.677 216.379 158.121 194.848 160.295 185.874C162.166 178.182 159.284 169.684 154.511 163.478C152.692 161.235 150.683 159.14 148.504 157.214C144.677 160.421 140.52 163.246 136.097 165.644C129.629 169.286 122.11 170.826 114.658 170.034C114.658 170.218 114.658 170.335 114.658 170.374C114.658 170.898 115.568 182.514 115.568 182.514C115.568 182.514 105.678 203.288 102.564 218.069C99.4492 232.851 100.905 241.31 108.055 244.476C115.204 247.642 147.645 252.042 148.565 253.1C149.485 254.159 150.213 254.858 151.498 254.858C152.782 254.858 154.43 254.159 155.543 254.858C156.655 255.557 156.635 256.091 157.919 256.091C158.532 256.171 159.118 256.388 159.627 256.725C160.137 257.063 160.556 257.511 160.852 258.034C161.216 258.733 163.42 257.325 164.148 252.042C164.876 246.758 163.784 244.272 162.682 244.126C161.58 243.981 161.772 242.184 159.942 242.184C157.973 242.304 156.014 242.541 154.076 242.893C153.121 242.617 152.138 242.441 151.144 242.368C150.041 242.368 148.757 241.485 148.019 241.31C147.281 241.135 135.197 236.376 135.197 236.376L134.731 236.143C146.967 229.442 164.32 217.584 164.32 217.584C164.32 217.584 169.306 217.282 171.49 215.486C172.97 214.214 174.324 212.813 175.535 211.3L179.276 209.804C179.229 207.452 178.47 205.164 177.092 203.22C174.938 200.529 173.998 199.335 173.998 199.335Z" fill="#263238" stroke="#263238" stroke-linecap="round" stroke-linejoin="round"/>
<path d="M127.198 181.31L130.798 182.941C130.798 182.941 115.75 217.749 113.606 227.723C111.463 237.697 114.031 242.582 118.056 242.582C122.081 242.582 133.528 236.881 133.528 236.881" stroke="white" stroke-linecap="round" stroke-linejoin="round"/>
<path d="M140.677 216.379C140.677 216.379 131.647 229.199 129.078 232.2" stroke="white" stroke-linecap="round" stroke-linejoin="round"/>
<path d="M67.2209 33.0762C67.2209 33.0762 63.5501 28.1425 63.004 27.0839C62.4579 26.0253 61.3557 29.0263 62.2658 30.7841C62.8484 31.8771 63.5907 32.8844 64.4703 33.7754C64.4703 33.7754 63.004 38.0001 65.1984 39.758" fill="white"/>
<path d="M67.2209 33.0762C67.2209 33.0762 63.5501 28.1425 63.004 27.0839C62.4579 26.0253 61.3557 29.0263 62.2658 30.7841C62.8484 31.8771 63.5907 32.8844 64.4703 33.7754C64.4703 33.7754 63.004 38.0001 65.1984 39.758" stroke="#263238" stroke-linecap="round" stroke-linejoin="round"/>
<path d="M185.121 39.6707C185.121 39.6707 188.782 34.7467 189.338 33.6881C189.894 32.6295 190.986 35.6305 190.066 37.3884C189.485 38.4798 188.746 39.4868 187.872 40.3797C187.872 40.3797 189.338 44.6044 187.133 46.3622" fill="white"/>
<path d="M185.121 39.6707C185.121 39.6707 188.782 34.7467 189.338 33.6881C189.894 32.6295 190.986 35.6305 190.066 37.3884C189.485 38.4798 188.746 39.4868 187.872 40.3797C187.872 40.3797 189.338 44.6044 187.133 46.3622" stroke="#263238" stroke-linecap="round" stroke-linejoin="round"/>
<path d="M107.175 117.745C107.175 117.745 105.527 125.514 105.527 129.71C105.527 133.906 109.926 142.908 111.392 146.958C112.858 151.008 114.688 169.84 114.688 170.374C114.688 170.52 114.759 171.559 114.87 172.977C121.353 174.715 134.721 175.308 150.658 159.263C147.766 156.437 144.591 153.805 141.992 150.746C140.151 148.6 138.746 147.007 138.877 146.084C139.09 144.657 140.829 137.47 142.406 131.351L147.321 122.3C148.535 121.086 153.955 114.53 154.46 113.695C157.393 108.936 171.874 94.8538 173.34 93.6204C174.807 92.3869 178.103 85.3555 180.672 74.7889C181.612 70.9041 182.694 66.3492 183.776 62.1634C181.708 61.7506 179.708 61.0711 177.83 60.1433C176.061 63.4648 174.321 66.7863 173.34 68.8064C170.772 74.0897 163.986 86.7637 163.986 86.7637L146.947 103.837C146.947 103.837 144.378 105.071 139.98 107.528C139.565 107.761 139.13 108.023 138.695 108.285L130.605 109.995L123.668 108.771C120.377 106.307 116.951 104.015 113.404 101.905C109.005 99.4475 106.437 98.2141 106.437 98.2141L89.3974 81.1405C89.3974 81.1405 82.612 68.515 80.0435 63.1831C78.8603 60.7552 76.5951 56.4528 74.4918 52.5C72.7202 53.215 70.911 53.8407 69.0715 54.3744C70.2547 59.0944 71.5996 64.5622 72.712 69.1366C75.2805 79.7032 78.5772 86.7443 80.0435 87.9777C81.5097 89.2111 95.9907 103.284 98.9233 108.043C101.29 111.561 104.058 114.815 107.175 117.745Z" fill="#322153"/>
<path d="M107.681 98.8162C106.872 98.4083 106.437 98.2043 106.437 98.2043L105.426 97.1846L97.1638 105.673C97.7551 106.39 98.3086 107.136 98.8222 107.907L107.681 98.8162Z" fill="#263238"/>
<path d="M99.9447 91.6975L97.993 89.7551L88.8918 96.6603C89.5289 97.311 90.1761 97.9714 90.8031 98.6027L99.9447 91.6975Z" fill="#263238"/>
<path d="M114.668 102.633L113.404 101.895L112.221 101.235L102.109 112.364C102.736 113.112 103.352 113.812 103.939 114.443L114.668 102.633Z" fill="#263238"/>
<path d="M91.8245 83.52L81.3076 89.1141L83.3301 91.0565L93.7863 85.4818L91.8245 83.52Z" fill="#263238"/>
<path d="M117.631 104.517L113.253 109.208C113.053 109.268 112.869 109.371 112.717 109.509C112.524 109.69 112.397 109.924 112.353 110.179L106.184 116.783C106.791 117.385 107.195 117.754 107.195 117.754C107.195 117.754 106.892 119.172 106.548 121.134L107.671 119.503C110.411 120.629 118.036 122.659 137.411 122.659C139.393 122.659 141.5 122.636 143.731 122.591C143.935 122.586 144.135 122.54 144.318 122.455C145.007 122.985 145.813 123.357 146.674 123.543L147.341 122.309C147.584 122.067 147.999 121.6 148.504 121.018C148.168 121.039 147.83 121.039 147.493 121.018C144.004 120.61 141.871 113.472 140.95 107.052L139.939 107.586C139.525 107.819 139.09 108.081 138.655 108.344L138.291 108.421C138.443 109.392 138.614 110.364 138.837 111.335C125.438 114.647 118.471 111.956 115.872 110.451L119.917 106.139C119.219 105.585 118.44 105.051 117.631 104.517ZM127.056 115.569C131.268 115.513 135.457 114.952 139.525 113.899C140.085 116.006 140.939 118.032 142.063 119.92C121.191 120.241 112.565 118.308 109.491 117.279L114.011 112.423C115.932 113.627 120.038 115.569 127.056 115.569Z" fill="#263238"/>
<path d="M82.0155 67.0972L73.1064 70.7197C73.3491 71.6327 73.5817 72.5067 73.8244 73.3614L83.2694 69.4766L82.0155 67.0972Z" fill="#263238"/>
<path d="M77.8997 58.9487L70.821 61.4641C71.0334 62.3479 71.2559 63.222 71.4682 64.0961L79.1435 61.3767L77.8997 58.9487Z" fill="#263238"/>
<path d="M87.5065 77.5763C87.1121 76.8479 86.6874 76.0321 86.2323 75.1775L76.2817 80.7813C76.6357 81.7039 76.9795 82.5488 77.293 83.3064L87.5065 77.5763Z" fill="#263238"/>
<path d="M168.345 78.5281C167.9 79.3924 167.455 80.2374 167.03 81.0338C169.791 83.4326 172.966 86.0645 176.263 88.4828C176.607 87.6864 176.951 86.8124 177.274 85.8509C174.109 83.4617 171.015 80.8687 168.345 78.5281Z" fill="#263238"/>
<path d="M139.403 143.588C139.585 142.782 139.808 141.821 140.06 140.772C125.307 142.714 114.456 141.015 108.308 139.412C108.742 140.49 109.177 141.549 109.602 142.549C115.291 143.814 121.115 144.434 126.955 144.395C131.118 144.388 135.277 144.119 139.403 143.588Z" fill="#263238"/>
<path d="M171.753 71.9629C174.426 73.8354 177.197 75.5761 180.055 77.1782C180.267 76.4012 180.47 75.6048 180.672 74.789C180.672 74.6725 180.672 74.5462 180.753 74.4297C178.081 72.9103 175.492 71.2603 172.997 69.4863C172.643 70.2244 172.218 71.0597 171.753 71.9629Z" fill="#263238"/>
<path d="M105.537 129.273C105.537 129.418 105.537 129.574 105.537 129.71C105.557 130.472 105.655 131.23 105.83 131.973C111.807 131.545 124.174 131.273 141.77 133.915C141.982 133.06 142.204 132.206 142.417 131.371V131.283C124.285 128.515 111.675 128.807 105.537 129.273Z" fill="#263238"/>
<path d="M147.18 155.981C146.482 155.34 145.804 154.689 145.157 154.038C134.61 160.837 122.061 163.614 114.163 164.721C114.274 165.693 114.365 166.664 114.446 167.441C122.698 166.324 135.965 163.42 147.18 155.981Z" fill="#263238"/>
<path d="M112.676 153.223C112.808 154.097 112.939 155.019 113.071 155.961C114.082 155.961 115.255 155.961 116.468 155.961C125.605 156.05 134.704 154.816 143.458 152.3C142.963 151.775 142.447 151.251 141.992 150.697L141.446 150.066C130.707 153.155 119.472 153.446 112.676 153.223Z" fill="#263238"/>
<path d="M161.913 88.8323C164.33 91.7459 166.97 94.5526 169.599 97.1749L171.621 95.2325C168.992 92.5811 166.312 89.7161 163.905 86.8511L161.913 88.8323Z" fill="#263238"/>
<path d="M162.702 104.139L164.624 102.196C161.554 99.9404 158.765 97.353 156.311 94.4849L154.349 96.4273C156.826 99.2883 159.628 101.875 162.702 104.139Z" fill="#263238"/>
<path d="M154.461 113.695C154.791 113.165 155.152 112.652 155.543 112.161C153.975 109.325 151.69 105.11 149.667 101.099L147.645 103.177C149.88 107.576 152.347 112.073 153.793 114.647C154.107 114.181 154.359 113.841 154.461 113.695Z" fill="#263238"/>
<path opacity="0.25" d="M183.513 62.1538C179.185 71.3218 170.913 88.8422 169.275 92.3288C167.04 97.107 149.394 114.287 146.411 115.958C143.428 117.628 141.689 121.688 140.445 125.981C139.262 130.069 135.833 133.294 135.51 137.713C133.811 136.47 130.454 135.43 125.782 135.052C116.832 134.333 108.388 136.489 108.388 128.613C108.388 120.736 113.606 113.073 113.859 110.704C114.112 108.334 109.137 112.646 106.649 110.947C104.161 109.247 87.2637 90.6583 82.2884 84.7243C79.1232 80.9172 73.5007 65.1645 69.8401 54.2385L69.0715 54.4716C70.2547 59.1916 71.5996 64.6594 72.712 69.2338C75.2805 79.8004 78.5772 86.8415 80.0435 88.0652C81.5097 89.2889 95.9907 103.381 98.9233 108.14C101.29 111.661 104.057 114.919 107.175 117.852C107.175 117.852 105.527 125.621 105.527 129.817C105.527 134.012 109.926 143.015 111.392 147.065C112.858 151.115 114.688 169.947 114.688 170.481C114.688 170.626 114.759 171.666 114.87 173.084C115.766 173.32 116.674 173.508 117.591 173.647C117.419 166.266 116.145 150.882 118.329 147.522C120.705 143.87 132.173 143.705 135.52 141.617C135.662 145.513 137.113 149.261 139.656 152.3C141.466 154.582 145.592 157.7 149.546 160.429L150.618 159.38C147.726 156.554 144.55 153.922 141.951 150.863C140.111 148.716 138.705 147.124 138.837 146.201C139.049 144.773 140.789 137.586 142.366 131.468L147.281 122.416C148.494 121.202 153.914 114.647 154.42 113.812C157.353 109.053 171.834 94.9704 173.3 93.737C174.766 92.5036 178.063 85.4721 180.631 74.9055C181.572 71.0208 182.654 66.4659 183.736 62.28L183.513 62.1538Z" fill="black"/>
<path d="M107.175 117.745C107.175 117.745 105.527 125.514 105.527 129.71C105.527 133.905 109.926 142.908 111.392 146.958C112.858 151.008 114.688 169.84 114.688 170.374C114.688 170.52 114.759 171.559 114.87 172.977C121.353 174.715 134.721 175.308 150.658 159.263C147.766 156.437 144.591 153.805 141.992 150.746C140.151 148.6 138.746 147.007 138.877 146.084C139.09 144.657 140.829 137.47 142.406 131.351L147.321 122.3C148.535 121.086 153.955 114.53 154.46 113.695C157.393 108.936 171.874 94.8538 173.34 93.6204C174.807 92.3869 178.103 85.3555 180.672 74.7889C181.612 70.9041 182.694 66.3492 183.776 62.1634C181.708 61.7506 179.708 61.0711 177.83 60.1433C176.061 63.4648 174.321 66.7863 173.34 68.8064C170.772 74.0897 163.986 86.7637 163.986 86.7637L146.947 103.837C146.947 103.837 144.378 105.071 139.98 107.528C139.565 107.761 139.13 108.023 138.695 108.285L130.605 109.995L123.668 108.771C120.377 106.307 116.951 104.015 113.404 101.905C109.005 99.4475 106.437 98.2141 106.437 98.2141L89.3974 81.1405C89.3974 81.1405 82.612 68.515 80.0435 63.1831C78.8603 60.7552 76.5951 56.4528 74.4918 52.5C72.7202 53.215 70.911 53.8407 69.0715 54.3744C70.2547 59.0944 71.5996 64.5622 72.712 69.1366C75.2805 79.7032 78.5772 86.7443 80.0435 87.9777C81.5097 89.2111 95.9907 103.284 98.9233 108.043C101.29 111.561 104.058 114.815 107.175 117.745V117.745Z" stroke="#263238" stroke-linecap="round" stroke-linejoin="round"/>
<path d="M121.838 95.0286C121.838 95.0286 122.02 106.12 121.1 108.761C120.179 111.403 115.032 116.531 117.257 120.736C119.482 124.941 127.521 120.202 130.403 115.103C133.285 110.004 131.879 108.412 131.879 108.412V100.642L121.838 95.0286Z" fill="white"/>
<path d="M131.92 100.661L121.808 95.0286C121.808 95.0286 121.99 106.12 121.069 108.761C120.935 109.127 120.77 109.481 120.574 109.82C122.494 110.416 124.554 110.46 126.5 109.946C128.546 109.118 130.383 107.88 131.89 106.314L131.92 100.661Z" fill="#322153"/>
<path opacity="0.5" d="M131.92 100.661L121.808 95.0286C121.808 95.0286 121.99 106.12 121.069 108.761C120.935 109.127 120.77 109.481 120.574 109.82C122.494 110.416 124.554 110.46 126.5 109.946C128.546 109.118 130.383 107.88 131.89 106.314L131.92 100.661Z" fill="white"/>
<path d="M121.838 95.0286C121.838 95.0286 122.02 106.12 121.1 108.761C120.179 111.403 115.032 116.531 117.257 120.736C119.482 124.941 127.521 120.202 130.403 115.103C133.285 110.004 131.879 108.412 131.879 108.412V100.642L121.838 95.0286Z" stroke="#263238" stroke-linecap="round" stroke-linejoin="round"/>
<path d="M119.815 87.6378C119.815 87.6378 116.337 84.4717 115.416 86.7637C114.496 89.0557 116.883 92.3966 118.167 92.7462L119.451 93.0959C120.02 95.6048 121.289 97.9178 123.122 99.7874C126.055 102.604 129.351 104.012 133.012 102.254C136.673 100.496 139.615 96.0871 140.525 90.8136C141.079 88.2077 141.266 85.5423 141.082 82.8886C141.082 82.0048 139.433 75.6726 134.66 74.0896C129.887 72.5065 130.443 74.4392 126.783 78.4891C124.248 81.3845 121.921 84.441 119.815 87.6378Z" fill="white"/>
<path d="M140.081 79.6353C140.384 82.5488 140.89 90.1047 138.705 93.7273C135.975 98.253 133.235 102.555 127.774 100.409C122.313 98.2628 120.564 92.7658 120.564 92.7658C120.564 92.7658 119.077 93.0086 116.832 91.0954C116.602 90.8886 116.335 90.724 116.043 90.6098C116.488 91.529 117.234 92.283 118.167 92.7561L119.451 93.1057C120.021 95.6146 121.289 97.9276 123.122 99.7972C126.055 102.614 129.351 104.022 133.012 102.264C136.673 100.506 139.615 96.097 140.526 90.8234C141.079 88.2176 141.266 85.5521 141.082 82.8985C140.919 81.7689 140.582 80.669 140.081 79.6353Z" fill="#322153"/>
<path opacity="0.5" d="M140.081 79.6353C140.384 82.5488 140.89 90.1047 138.705 93.7273C135.975 98.253 133.235 102.555 127.774 100.409C122.313 98.2628 120.564 92.7658 120.564 92.7658C120.564 92.7658 119.077 93.0086 116.832 91.0954C116.602 90.8886 116.335 90.724 116.043 90.6098C116.488 91.529 117.234 92.283 118.167 92.7561L119.451 93.1057C120.021 95.6146 121.289 97.9276 123.122 99.7972C126.055 102.614 129.351 104.022 133.012 102.264C136.673 100.506 139.615 96.097 140.526 90.8234C141.079 88.2176 141.266 85.5521 141.082 82.8985C140.919 81.7689 140.582 80.669 140.081 79.6353Z" fill="white"/>
<path d="M119.815 87.6378C119.815 87.6378 116.337 84.4717 115.416 86.7637C114.496 89.0557 116.883 92.3966 118.167 92.7462L119.451 93.0959C120.02 95.6048 121.289 97.9178 123.122 99.7874C126.055 102.604 129.351 104.012 133.012 102.254C136.673 100.496 139.615 96.0871 140.525 90.8136C141.079 88.2077 141.266 85.5423 141.082 82.8886C141.082 82.0048 139.433 75.6726 134.66 74.0896C129.887 72.5065 130.443 74.4392 126.783 78.4891C124.248 81.3845 121.921 84.441 119.815 87.6378V87.6378Z" stroke="#263238" stroke-linecap="round" stroke-linejoin="round"/>
<path d="M135.035 84.1221C135.035 84.1221 133.75 86.4044 134.296 86.9385C134.843 87.4727 136.683 88.5216 135.763 89.046C134.895 89.4062 133.958 89.5882 133.012 89.5802" stroke="#263238" stroke-linecap="round" stroke-linejoin="round"/>
<path d="M127.703 90.3184C127.703 90.3184 129.898 92.7852 136.865 91.9014C136.865 91.9014 132.648 95.9513 130.798 95.9513C128.947 95.9513 127.703 90.3184 127.703 90.3184Z" stroke="#263238" stroke-linecap="round" stroke-linejoin="round"/>
<path d="M126.419 84.6465C126.419 84.6465 128.987 83.7725 130.464 85.1807" stroke="#263238" stroke-linecap="round" stroke-linejoin="round"/>
<path d="M135.581 86.0548C135.581 86.0548 138.513 85.1807 139.059 87.1134" stroke="#263238" stroke-linecap="round" stroke-linejoin="round"/>
<path d="M126.237 81.6552C126.812 81.0171 127.583 80.5715 128.44 80.383C129.296 80.1944 130.193 80.2726 131 80.6063" stroke="#263238" stroke-linecap="round" stroke-linejoin="round"/>
<path d="M135.945 82.5487C135.945 82.5487 138.331 80.4315 139.99 84.3065" stroke="#263238" stroke-linecap="round" stroke-linejoin="round"/>
</svg>
