<svg width="320" height="63" viewBox="0 0 320 63" fill="none" xmlns="http://www.w3.org/2000/svg">
<path d="M83.0452 8.25513V25.1182C83.0452 27.7288 82.3043 29.7396 80.8226 31.1508C79.3645 32.5619 77.3889 33.2675 74.8959 33.2675C72.2853 33.2675 70.1921 32.5266 68.6163 31.0449C67.0406 29.5632 66.2527 27.4583 66.2527 24.7301H72.25C72.25 25.7649 72.4617 26.5528 72.885 27.0938C73.3084 27.6112 73.9198 27.8699 74.7195 27.8699C75.4486 27.8699 76.013 27.6347 76.4128 27.1643C76.8127 26.6939 77.0126 26.0119 77.0126 25.1182V8.25513H83.0452Z" fill="#F0F0F5"/>
<path d="M95.9262 33.2675C93.5978 33.2675 91.4576 32.7265 89.5055 31.6447C87.577 30.5628 86.0365 29.0576 84.884 27.129C83.7551 25.177 83.1907 22.9897 83.1907 20.5673C83.1907 18.1448 83.7551 15.9693 84.884 14.0408C86.0365 12.1122 87.577 10.607 89.5055 9.52515C91.4576 8.44328 93.5978 7.90234 95.9262 7.90234C98.2545 7.90234 100.383 8.44328 102.312 9.52515C104.264 10.607 105.792 12.1122 106.898 14.0408C108.027 15.9693 108.591 18.1448 108.591 20.5673C108.591 22.9897 108.027 25.177 106.898 27.129C105.769 29.0576 104.24 30.5628 102.312 31.6447C100.383 32.7265 98.2545 33.2675 95.9262 33.2675ZM95.9262 27.764C97.9018 27.764 99.4775 27.1055 100.653 25.7885C101.853 24.4714 102.453 22.731 102.453 20.5673C102.453 18.38 101.853 16.6396 100.653 15.3461C99.4775 14.029 97.9018 13.3705 95.9262 13.3705C93.9271 13.3705 92.3278 14.0173 91.1283 15.3108C89.9524 16.6043 89.3644 18.3565 89.3644 20.5673C89.3644 22.7545 89.9524 24.5067 91.1283 25.8237C92.3278 27.1173 93.9271 27.764 95.9262 27.764Z" fill="#F0F0F5"/>
<path d="M131.491 8.25513L122.707 33.0205H115.158L106.373 8.25513H112.794L118.932 26.9526L125.106 8.25513H131.491Z" fill="#F0F0F5"/>
<path d="M136.341 13.0883V18.0978H144.42L142.242 22.7545H136.341V28.1874H145.478V33.0205H130.308V8.25513H145.478V13.0883H136.341Z" fill="#F0F0F5"/>
<path d="M167.845 33.0205H161.813L151.723 17.745V33.0205H145.69V8.25513H151.723L161.813 23.6012V8.25513H167.845V33.0205Z" fill="#F0F0F5"/>
<path d="M177.474 33.2675C175.664 33.2675 174.041 32.9735 172.606 32.3855C171.171 31.7975 170.019 30.9273 169.149 29.7749C168.302 28.6225 167.855 27.2349 167.808 25.6121H174.229C174.323 26.5293 174.64 27.2349 175.181 27.7288C175.722 28.1991 176.428 28.4343 177.298 28.4343C178.192 28.4343 178.897 28.2344 179.415 27.8346C179.932 27.4113 180.191 26.835 180.191 26.106C180.191 25.4945 179.979 24.9888 179.556 24.589C179.156 24.1892 178.65 23.8599 178.039 23.6012C177.451 23.3425 176.604 23.0485 175.499 22.7192C173.9 22.2253 172.594 21.7314 171.583 21.2375C170.572 20.7437 169.701 20.0146 168.972 19.0503C168.243 18.086 167.879 16.8278 167.879 15.2755C167.879 12.9707 168.714 11.1715 170.384 9.87793C172.053 8.56087 174.229 7.90234 176.91 7.90234C179.638 7.90234 181.837 8.56087 183.507 9.87793C185.177 11.1715 186.071 12.9824 186.188 15.3108H179.662C179.615 14.5111 179.321 13.8879 178.78 13.441C178.239 12.9707 177.545 12.7355 176.698 12.7355C175.969 12.7355 175.381 12.9354 174.934 13.3352C174.488 13.7115 174.264 14.2642 174.264 14.9933C174.264 15.7929 174.64 16.4162 175.393 16.863C176.146 17.3099 177.322 17.792 178.921 18.3094C180.52 18.8504 181.814 19.3678 182.802 19.8617C183.813 20.3556 184.683 21.0729 185.412 22.0137C186.141 22.9544 186.506 24.1656 186.506 25.6473C186.506 27.0585 186.141 28.3403 185.412 29.4927C184.707 30.6451 183.672 31.5623 182.308 32.2444C180.944 32.9264 179.332 33.2675 177.474 33.2675Z" fill="#F0F0F5"/>
<path d="M84.9855 43.7451C84.9855 45.1798 84.6562 46.4968 83.9977 47.6963C83.3392 48.8722 82.3278 49.8247 80.9637 50.5538C79.5996 51.2829 77.9063 51.6475 75.8837 51.6475H72.1442V60.5376H66.1116V35.7722H75.8837C77.8593 35.7722 79.5291 36.1132 80.8932 36.7953C82.2573 37.4773 83.2804 38.4181 83.9624 39.6176C84.6445 40.817 84.9855 42.1929 84.9855 43.7451ZM75.425 46.8496C76.5775 46.8496 77.4359 46.5791 78.0004 46.0382C78.5648 45.4973 78.847 44.7329 78.847 43.7451C78.847 42.7573 78.5648 41.993 78.0004 41.452C77.4359 40.9111 76.5775 40.6406 75.425 40.6406H72.1442V46.8496H75.425Z" fill="#F0F0F5"/>
<path d="M97.0515 60.5376L91.9009 51.1888H90.4544V60.5376H84.4218V35.7722H94.5467C96.4988 35.7722 98.1569 36.1132 99.521 36.7953C100.909 37.4773 101.943 38.4181 102.625 39.6176C103.308 40.7935 103.649 42.1106 103.649 43.5687C103.649 45.215 103.178 46.685 102.237 47.9785C101.32 49.2721 99.9561 50.1893 98.1451 50.7302L103.86 60.5376H97.0515ZM90.4544 46.9202H94.1939C95.2993 46.9202 96.1225 46.6497 96.6634 46.1088C97.2279 45.5678 97.5101 44.8035 97.5101 43.8157C97.5101 42.8749 97.2279 42.1341 96.6634 41.5931C96.1225 41.0522 95.2993 40.7817 94.1939 40.7817H90.4544V46.9202Z" fill="#F0F0F5"/>
<path d="M115.444 60.7845C113.115 60.7845 110.975 60.2436 109.023 59.1617C107.094 58.0799 105.554 56.5747 104.402 54.6461C103.273 52.694 102.708 50.5068 102.708 48.0843C102.708 45.6619 103.273 43.4864 104.402 41.5579C105.554 39.6293 107.094 38.1241 109.023 37.0422C110.975 35.9604 113.115 35.4194 115.444 35.4194C117.772 35.4194 119.9 35.9604 121.829 37.0422C123.781 38.1241 125.31 39.6293 126.415 41.5579C127.544 43.4864 128.109 45.6619 128.109 48.0843C128.109 50.5068 127.544 52.694 126.415 54.6461C125.286 56.5747 123.758 58.0799 121.829 59.1617C119.9 60.2436 117.772 60.7845 115.444 60.7845ZM115.444 55.2811C117.419 55.2811 118.995 54.6226 120.171 53.3055C121.37 51.9885 121.97 50.2481 121.97 48.0843C121.97 45.8971 121.37 44.1567 120.171 42.8632C118.995 41.5461 117.419 40.8876 115.444 40.8876C113.445 40.8876 111.845 41.5343 110.646 42.8279C109.47 44.1214 108.882 45.8736 108.882 48.0843C108.882 50.2716 109.47 52.0238 110.646 53.3408C111.845 54.6344 113.445 55.2811 115.444 55.2811Z" fill="#F0F0F5"/>
<path d="M145.576 35.7722V40.6053H139.014V60.5376H132.982V40.6053H126.42V35.7722H145.576Z" fill="#F0F0F5"/>
<path d="M183.646 43.604C183.199 42.7808 182.552 42.1576 181.705 41.7343C180.882 41.2874 179.906 41.064 178.777 41.064C176.825 41.064 175.261 41.7107 174.085 43.0043C172.909 44.2743 172.321 45.9794 172.321 48.1196C172.321 50.401 172.933 52.1884 174.156 53.4819C175.402 54.752 177.107 55.387 179.271 55.387C180.753 55.387 181.999 55.0107 183.011 54.2581C184.046 53.5055 184.798 52.4236 185.269 51.0125H177.613V46.5674H190.737V52.1766C190.29 53.6818 189.525 55.0812 188.444 56.3748C187.385 57.6683 186.033 58.7149 184.387 59.5145C182.74 60.3142 180.882 60.714 178.813 60.714C176.367 60.714 174.179 60.1848 172.251 59.1265C170.346 58.0446 168.852 56.5511 167.77 54.6461C166.712 52.7411 166.183 50.5656 166.183 48.1196C166.183 45.6737 166.712 43.4982 167.77 41.5931C168.852 39.6646 170.346 38.1711 172.251 37.1128C174.156 36.0309 176.331 35.49 178.777 35.49C181.741 35.49 184.234 36.2073 186.256 37.642C188.302 39.0766 189.655 41.064 190.313 43.604H183.646Z" fill="#F0F0F5"/>
<path d="M202.086 60.7845C199.758 60.7845 197.618 60.2436 195.666 59.1617C193.737 58.0799 192.197 56.5747 191.044 54.6461C189.915 52.694 189.351 50.5068 189.351 48.0843C189.351 45.6619 189.915 43.4864 191.044 41.5579C192.197 39.6293 193.737 38.1241 195.666 37.0422C197.618 35.9604 199.758 35.4194 202.086 35.4194C204.415 35.4194 206.543 35.9604 208.472 37.0422C210.424 38.1241 211.953 39.6293 213.058 41.5579C214.187 43.4864 214.751 45.6619 214.751 48.0843C214.751 50.5068 214.187 52.694 213.058 54.6461C211.929 56.5747 210.4 58.0799 208.472 59.1617C206.543 60.2436 204.415 60.7845 202.086 60.7845ZM202.086 55.2811C204.062 55.2811 205.638 54.6226 206.814 53.3055C208.013 51.9885 208.613 50.2481 208.613 48.0843C208.613 45.8971 208.013 44.1567 206.814 42.8632C205.638 41.5461 204.062 40.8876 202.086 40.8876C200.087 40.8876 198.488 41.5343 197.288 42.8279C196.113 44.1214 195.525 45.8736 195.525 48.0843C195.525 50.2716 196.113 52.0238 197.288 53.3408C198.488 54.6344 200.087 55.2811 202.086 55.2811Z" fill="#F0F0F5"/>
<path d="M236.558 60.5376H230.525L220.436 45.2621V60.5376H214.403V35.7722H220.436L230.525 51.1183V35.7722H236.558V60.5376Z" fill="#F0F0F5"/>
<path d="M243.259 35.7722V60.5376H237.227V35.7722H243.259Z" fill="#F0F0F5"/>
<path d="M252.887 60.7845C251.076 60.7845 249.454 60.4906 248.019 59.9026C246.584 59.3146 245.432 58.4444 244.562 57.292C243.715 56.1396 243.268 54.752 243.221 53.1292H249.642C249.736 54.0464 250.053 54.752 250.594 55.2458C251.135 55.7162 251.841 55.9514 252.711 55.9514C253.605 55.9514 254.31 55.7515 254.828 55.3517C255.345 54.9283 255.604 54.3521 255.604 53.623C255.604 53.0116 255.392 52.5059 254.969 52.1061C254.569 51.7063 254.063 51.377 253.452 51.1183C252.864 50.8596 252.017 50.5656 250.912 50.2363C249.313 49.7424 248.007 49.2485 246.996 48.7546C245.985 48.2607 245.114 47.5317 244.385 46.5674C243.656 45.6031 243.292 44.3448 243.292 42.7926C243.292 40.4878 244.127 38.6886 245.796 37.395C247.466 36.078 249.642 35.4194 252.323 35.4194C255.051 35.4194 257.25 36.078 258.92 37.395C260.59 38.6886 261.484 40.4995 261.601 42.8279H255.075C255.028 42.0282 254.734 41.405 254.193 40.9581C253.652 40.4878 252.958 40.2526 252.111 40.2526C251.382 40.2526 250.794 40.4525 250.347 40.8523C249.901 41.2286 249.677 41.7813 249.677 42.5104C249.677 43.31 250.053 43.9333 250.806 44.3801C251.559 44.827 252.735 45.3091 254.334 45.8265C255.933 46.3675 257.227 46.8849 258.214 47.3788C259.226 47.8727 260.096 48.59 260.825 49.5308C261.554 50.4715 261.919 51.6827 261.919 53.1644C261.919 54.5756 261.554 55.8573 260.825 57.0098C260.119 58.1622 259.085 59.0794 257.721 59.7615C256.356 60.4435 254.745 60.7845 252.887 60.7845Z" fill="#F0F0F5"/>
<path d="M279.742 35.7722V40.6053H273.181V60.5376H267.148V40.6053H260.586V35.7722H279.742Z" fill="#F0F0F5"/>
<path d="M310.333 60.7845C308.522 60.7845 306.899 60.4906 305.465 59.9026C304.03 59.3146 302.878 58.4444 302.007 57.292C301.161 56.1396 300.714 54.752 300.667 53.1292H307.088C307.182 54.0464 307.499 54.752 308.04 55.2458C308.581 55.7162 309.287 55.9514 310.157 55.9514C311.05 55.9514 311.756 55.7515 312.273 55.3517C312.791 54.9283 313.05 54.3521 313.05 53.623C313.05 53.0116 312.838 52.5059 312.415 52.1061C312.015 51.7063 311.509 51.377 310.898 51.1183C310.31 50.8596 309.463 50.5656 308.358 50.2363C306.758 49.7424 305.453 49.2485 304.442 48.7546C303.43 48.2607 302.56 47.5317 301.831 46.5674C301.102 45.6031 300.737 44.3448 300.737 42.7926C300.737 40.4878 301.572 38.6886 303.242 37.395C304.912 36.078 307.088 35.4194 309.769 35.4194C312.497 35.4194 314.696 36.078 316.366 37.395C318.036 38.6886 318.929 40.4995 319.047 42.8279H312.52C312.473 42.0282 312.179 41.405 311.638 40.9581C311.098 40.4878 310.404 40.2526 309.557 40.2526C308.828 40.2526 308.24 40.4525 307.793 40.8523C307.346 41.2286 307.123 41.7813 307.123 42.5104C307.123 43.31 307.499 43.9333 308.252 44.3801C309.004 44.827 310.18 45.3091 311.78 45.8265C313.379 46.3675 314.672 46.8849 315.66 47.3788C316.672 47.8727 317.542 48.59 318.271 49.5308C319 50.4715 319.364 51.6827 319.364 53.1644C319.364 54.5756 319 55.8573 318.271 57.0098C317.565 58.1622 316.53 59.0794 315.166 59.7615C313.802 60.4435 312.191 60.7845 310.333 60.7845Z" fill="#F0F0F5"/>
<path d="M149.591 60.5376H143.277L152.237 35.7722H159.222L168.183 60.5376H161.798L160.316 56.1631L155.695 42.4398L152.661 51.5063L149.591 60.5376Z" fill="#F0F0F5"/>
<path d="M283.758 60.5376H277.443L286.404 35.7722H293.389L302.35 60.5376H295.964L294.482 56.1631L289.861 42.4398L286.827 51.5063L283.758 60.5376Z" fill="#F0F0F5"/>
<path d="M58.8442 25.5697L56.4735 36.6612H66.6337V49.7001H53.6795L50.8855 62.6543H37.3386L40.1326 49.7001H26.0777L23.2837 62.6543H9.73682L12.5309 49.7001H0V36.6612H15.3249L17.6956 25.5697H5.41875V12.5309H20.405L23.1144 0H36.6612L33.9519 12.5309H48.0067L50.7161 0H64.263L61.5536 12.5309H72.0524V25.5697H58.8442ZM45.2974 25.5697H31.2425L28.8718 36.6612H42.9267L45.2974 25.5697Z" fill="#F0F0F5"/>
</svg>
